<svg width="132" height="132" viewBox="0 0 132 132" fill="none" xmlns="http://www.w3.org/2000/svg">
<path d="M0 32C0 14.3269 14.3269 0 32 0H100C117.673 0 132 14.3269 132 32V100C132 117.673 117.673 132 100 132H32C14.3269 132 0 117.673 0 100V32Z" fill="#12355B"/>
<path d="M46.782 99.143C30.399 99.143 22.271 90.126 19.985 81.236L33.193 74.886C33.955 79.204 38.654 85.173 48.433 85.173C56.307 85.173 62.149 82.252 62.149 77.934C62.149 75.394 59.863 73.743 56.307 72.981L43.607 70.441C35.225 68.79 28.494 63.456 28.494 54.185C28.494 40.469 40.432 30.817 57.958 30.817C74.341 30.817 81.58 40.215 82.85 47.454L69.261 53.677C69.007 49.105 64.181 44.533 56.053 44.533C49.576 44.533 44.369 47.327 44.369 51.772C44.369 54.312 46.655 55.709 50.338 56.471L63.419 59.011C73.706 61.043 78.659 67.393 78.659 74.886C78.659 88.856 66.467 99.143 46.782 99.143Z" fill="#FAFAFA"/>
<path d="M102.475 99.143C96.1255 99.143 91.2995 94.19 91.2995 87.967C91.2995 81.744 96.1255 76.918 102.475 76.918C108.698 76.918 113.524 81.744 113.524 87.967C113.524 94.19 108.698 99.143 102.475 99.143Z" fill="#EE4266"/>
</svg>
