<svg xmlns="http://www.w3.org/2000/svg" viewBox="0 0 95 70" fill="none"><path fill="currentColor" d="M27.782 69.143c-16.383 0-24.511-9.017-26.797-17.907l13.208-6.35c.762 4.318 5.461 10.287 15.24 10.287 7.874 0 13.716-2.921 13.716-7.239 0-2.54-2.286-4.191-5.842-4.953l-12.7-2.54C16.225 38.79 9.494 33.456 9.494 24.185 9.494 10.469 21.432.817 38.958.817c16.383 0 23.622 9.398 24.892 16.637l-13.589 6.223c-.254-4.572-5.08-9.144-13.208-9.144-6.477 0-11.684 2.794-11.684 7.239 0 2.54 2.286 3.937 5.969 4.699l13.081 2.54c10.287 2.032 15.24 8.382 15.24 15.875 0 13.97-12.192 24.257-31.877 24.257Z"/><path fill="#EE4266" d="M83.475 69.143c-6.35 0-11.175-4.953-11.175-11.176s4.826-11.049 11.175-11.049c6.224 0 11.05 4.826 11.05 11.049s-4.827 11.176-11.05 11.176Z"/></svg>
