<svg xmlns="http://www.w3.org/2000/svg" viewbox="0 0 184 28" fill="none"><path fill="#12355B" d="M6.088 21.643C2.366 21.643.52 19.59 0 17.569l3.001-1.445c.173.982 1.24 2.34 3.463 2.34 1.789 0 3.116-.664 3.116-1.647 0-.578-.52-.953-1.327-1.127l-2.886-.577c-1.904-.376-3.434-1.59-3.434-3.7 0-3.12 2.713-5.316 6.695-5.316 3.722 0 5.367 2.138 5.655 3.785l-3.087 1.416c-.058-1.04-1.154-2.08-3.001-2.08-1.472 0-2.655.635-2.655 1.647 0 .578.52.896 1.356 1.069l2.973.578c2.337.462 3.462 1.907 3.462 3.612 0 3.178-2.77 5.519-7.243 5.519ZM20.849 21.643c-3.376 0-5.136-2.485-4.588-5.635l1.702-9.65h3.607l-1.529 8.726c-.346 1.907.78 3.12 2.453 3.12 1.818 0 3.26-1.329 3.578-3.12l1.53-8.727h3.606l-2.106 12.05.519 2.976h-3.982l-.289-1.56c-.779.866-2.366 1.82-4.501 1.82ZM31.689 28l3.809-21.643h3.607l-.318 1.763c1.126-1.185 3.117-2.023 5.194-2.023 3.492 0 6.175 2.34 6.175 6.126 0 5.057-3.895 9.42-8.916 9.42-2.078 0-3.78-.867-4.444-2.052L35.296 28h-3.607Zm6.002-13.263c0 1.994 1.327 3.525 3.578 3.525 2.799 0 5.136-2.398 5.136-5.288 0-2.023-1.327-3.525-3.578-3.525-2.8 0-5.136 2.427-5.136 5.288ZM50.653 28l3.81-21.643h3.606l-.317 1.763c1.125-1.185 3.116-2.023 5.194-2.023 3.491 0 6.175 2.34 6.175 6.126 0 5.057-3.896 9.42-8.917 9.42-2.077 0-3.78-.867-4.443-2.052L54.26 28h-3.608Zm6.002-13.263c0 1.994 1.328 3.525 3.578 3.525 2.8 0 5.137-2.398 5.137-5.288 0-2.023-1.328-3.525-3.579-3.525-2.799 0-5.136 2.427-5.136 5.288ZM70.512 21.383 74.263 0h3.607l-3.75 21.383h-3.608ZM84.704 21.643c-4.27 0-6.58-2.803-6.58-6.357 0-5.201 3.896-9.189 9.09-9.189 4.848 0 7.012 3.699 6.348 7.628l-.26 1.445h-11.6c0 2.283 1.472 3.266 3.579 3.266 2.28 0 3.751-1.33 4.328-2.341l2.655 1.59c-.75 1.415-3.203 3.958-7.56 3.958ZM82.28 12.28h7.79c.145-1.416-.807-3.063-3.231-3.063-2.02 0-3.693 1.184-4.56 3.063Z"/><path fill="#EE4266" d="M97.019 21.643c-1.443 0-2.54-1.127-2.54-2.543 0-1.416 1.097-2.514 2.54-2.514 1.413 0 2.51 1.098 2.51 2.514 0 1.416-1.097 2.543-2.51 2.543Z"/><path fill="#12355B" d="m104.912 21.383-3.607-15.17h4.386l2.135 10.431 2.049-10.431h5.483l2.048 10.431 2.136-10.431h4.386l-3.607 15.17h-5.685l-2.02-10.287-2.019 10.287h-5.685ZM133.348 21.672c-4.559 0-8.253-3.092-8.253-7.86 0-4.768 3.694-7.86 8.253-7.86s8.252 3.092 8.252 7.86c0 4.768-3.693 7.86-8.252 7.86Zm-3.982-7.86c0 2.196 1.673 3.901 3.982 3.901 2.308 0 3.982-1.705 3.982-3.9 0-2.197-1.674-3.902-3.982-3.902-2.309 0-3.982 1.705-3.982 3.901ZM144.344 21.383V6.213h4.241v2.514l5.137-2.861v4.45l-5.137 2.658v8.409h-4.241ZM156.179 21.383V0h4.184v10.807h1.702l3.117-4.594h4.905l-4.617 6.732 4.704 8.438h-4.761l-3.55-6.3h-1.5v6.3h-4.184ZM177.132 21.643c-3.809 0-6.002-1.936-6.809-4.132l3.462-1.647c.52 1.098 1.703 2.11 3.578 2.11 1.587 0 2.366-.463 2.366-1.07 0-.52-.461-.838-1.24-.982l-3.059-.578c-2.193-.405-4.3-1.59-4.3-4.537 0-3.005 2.828-4.854 6.233-4.854 3.78 0 5.714 1.849 6.377 3.9l-3.376 1.619c-.231-.983-1.414-1.907-3.087-1.907-1.155 0-1.962.433-1.962 1.069 0 .607.548.867 1.327 1.011l3.087.578c2.799.52 4.271 2.283 4.271 4.421 0 2.803-2.308 4.999-6.868 4.999Z"/></svg>
