<svg xmlns="http://www.w3.org/2000/svg" viewbox="0 0 155 24" fill="none"><path fill="currentColor" d="M5.384 18.216c-3.096 0-4.632-1.704-5.064-3.384l2.496-1.2c.144.816 1.032 1.944 2.88 1.944 1.488 0 2.592-.552 2.592-1.368 0-.48-.432-.792-1.104-.936l-2.4-.48C3.2 12.48 1.928 11.472 1.928 9.72c0-2.592 2.256-4.416 5.568-4.416 3.096 0 4.464 1.776 4.704 3.144L9.632 9.624c-.048-.864-.96-1.728-2.496-1.728-1.224 0-2.208.528-2.208 1.368 0 .48.432.744 1.128.888l2.472.48c1.944.384 2.88 1.584 2.88 3 0 2.64-2.304 4.584-6.024 4.584ZM17.66 18.216c-2.807 0-4.271-2.064-3.815-4.68L15.26 5.52h3l-1.272 7.248c-.288 1.584.648 2.592 2.04 2.592 1.512 0 2.712-1.104 2.976-2.592l1.272-7.248h3l-1.752 10.008.432 2.472h-3.312l-.24-1.296c-.648.72-1.968 1.512-3.744 1.512ZM26.677 23.496 29.845 5.52h3l-.264 1.464c.935-.984 2.591-1.68 4.32-1.68 2.903 0 5.135 1.944 5.135 5.088 0 4.2-3.24 7.824-7.416 7.824-1.727 0-3.143-.72-3.695-1.704l-1.248 6.984h-3Zm4.992-11.016c0 1.656 1.104 2.928 2.976 2.928 2.327 0 4.271-1.992 4.271-4.392 0-1.68-1.103-2.928-2.975-2.928-2.329 0-4.273 2.016-4.273 4.392ZM42.45 23.496 45.618 5.52h3l-.264 1.464c.936-.984 2.592-1.68 4.32-1.68 2.904 0 5.136 1.944 5.136 5.088 0 4.2-3.24 7.824-7.416 7.824-1.728 0-3.144-.72-3.696-1.704l-1.248 6.984h-3Zm4.992-11.016c0 1.656 1.104 2.928 2.976 2.928 2.328 0 4.272-1.992 4.272-4.392 0-1.68-1.104-2.928-2.976-2.928-2.328 0-4.272 2.016-4.272 4.392ZM58.967 18 62.087.24h3L61.967 18h-3ZM70.77 18.216c-3.551 0-5.471-2.328-5.471-5.28 0-4.32 3.24-7.632 7.56-7.632 4.032 0 5.832 3.072 5.28 6.336l-.216 1.2h-9.648c0 1.896 1.224 2.712 2.976 2.712 1.896 0 3.12-1.104 3.6-1.944l2.208 1.32c-.624 1.176-2.664 3.288-6.288 3.288Zm-2.015-7.776h6.48c.12-1.176-.672-2.544-2.688-2.544-1.68 0-3.072.984-3.792 2.544Z"/><path fill="#EE4266" d="M82.213 18.216c-1.2 0-2.112-.936-2.112-2.112 0-1.176.912-2.088 2.112-2.088a2.06 2.06 0 0 1 2.088 2.088c0 1.176-.912 2.112-2.088 2.112Z"/><path fill="currentColor" d="m88.779 18-3-12.6h3.648l1.776 8.664L92.907 5.4h4.56l1.704 8.664 1.776-8.664h3.648l-3 12.6h-4.728l-1.68-8.544L93.507 18h-4.728ZM112.43 18.24c-3.792 0-6.864-2.568-6.864-6.528 0-3.96 3.072-6.528 6.864-6.528s6.864 2.568 6.864 6.528c0 3.96-3.072 6.528-6.864 6.528Zm-3.312-6.528c0 1.824 1.392 3.24 3.312 3.24s3.312-1.416 3.312-3.24c0-1.824-1.392-3.24-3.312-3.24s-3.312 1.416-3.312 3.24ZM121.575 18V5.4h3.528v2.088l4.272-2.376v3.696l-4.272 2.208V18h-3.528ZM131.419 18V.24h3.48v8.976h1.416l2.592-3.816h4.08l-3.84 5.592L143.059 18h-3.96l-2.952-5.232h-1.248V18h-3.48ZM148.847 18.216c-3.168 0-4.992-1.608-5.664-3.432l2.88-1.368c.432.912 1.416 1.752 2.976 1.752 1.32 0 1.968-.384 1.968-.888 0-.432-.384-.696-1.032-.816l-2.544-.48c-1.824-.336-3.576-1.32-3.576-3.768 0-2.496 2.352-4.032 5.184-4.032 3.144 0 4.752 1.536 5.304 3.24l-2.808 1.344c-.192-.816-1.176-1.584-2.568-1.584-.96 0-1.632.36-1.632.888 0 .504.456.72 1.104.84l2.568.48c2.328.432 3.552 1.896 3.552 3.672 0 2.328-1.92 4.152-5.712 4.152Z"/></svg>
